<svg width="69" height="18" viewBox="0 0 69 18" fill="none" xmlns="http://www.w3.org/2000/svg">
<path d="M1.77 17.78C1.422 17.78 1.116 17.756 0.852 17.708C0.588 17.672 0.36 17.63 0.168 17.582V15.314C0.36 15.362 0.564 15.404 0.78 15.44C0.984 15.476 1.206 15.494 1.446 15.494C1.758 15.494 2.04 15.434 2.292 15.314C2.556 15.194 2.76 14.966 2.904 14.63C3.048 14.294 3.12 13.814 3.12 13.19V1.148H5.838V13.172C5.838 14.276 5.664 15.164 5.316 15.836C4.98 16.52 4.506 17.012 3.894 17.312C3.282 17.624 2.574 17.78 1.77 17.78ZM13.045 3.974C14.365 3.974 15.373 4.262 16.069 4.838C16.777 5.402 17.131 6.272 17.131 7.448V14H15.259L14.737 12.668H14.665C14.389 13.016 14.101 13.304 13.801 13.532C13.513 13.76 13.177 13.922 12.793 14.018C12.421 14.126 11.959 14.18 11.407 14.18C10.831 14.18 10.309 14.072 9.84098 13.856C9.38498 13.628 9.02498 13.286 8.76098 12.83C8.49698 12.362 8.36498 11.774 8.36498 11.066C8.36498 10.022 8.73098 9.254 9.46298 8.762C10.195 8.258 11.293 7.982 12.757 7.934L14.467 7.88V7.448C14.467 6.932 14.329 6.554 14.053 6.314C13.789 6.074 13.417 5.954 12.937 5.954C12.457 5.954 11.989 6.026 11.533 6.17C11.077 6.302 10.621 6.47 10.165 6.674L9.28298 4.856C9.81098 4.58 10.393 4.364 11.029 4.208C11.677 4.052 12.349 3.974 13.045 3.974ZM13.423 9.482C12.559 9.506 11.959 9.662 11.623 9.95C11.287 10.238 11.119 10.616 11.119 11.084C11.119 11.492 11.239 11.786 11.479 11.966C11.719 12.134 12.031 12.218 12.415 12.218C12.991 12.218 13.477 12.05 13.873 11.714C14.269 11.366 14.467 10.88 14.467 10.256V9.446L13.423 9.482Z" fill="#170015"/>
<path d="M25.1203 6.782H30.2143V13.442C29.5423 13.67 28.8403 13.85 28.1083 13.982C27.3883 14.114 26.5663 14.18 25.6423 14.18C24.3703 14.18 23.2843 13.928 22.3843 13.424C21.4963 12.92 20.8183 12.176 20.3503 11.192C19.8943 10.208 19.6663 8.996 19.6663 7.556C19.6663 6.212 19.9243 5.048 20.4403 4.064C20.9683 3.08 21.7303 2.318 22.7263 1.778C23.7223 1.238 24.9403 0.967999 26.3803 0.967999C27.0643 0.967999 27.7363 1.04 28.3963 1.184C29.0563 1.328 29.6563 1.52 30.1963 1.76L29.2963 3.938C28.9003 3.734 28.4503 3.566 27.9463 3.434C27.4423 3.302 26.9143 3.236 26.3623 3.236C25.5703 3.236 24.8803 3.416 24.2923 3.776C23.7163 4.136 23.2663 4.646 22.9423 5.306C22.6303 5.954 22.4743 6.722 22.4743 7.61C22.4743 8.45 22.5883 9.194 22.8163 9.842C23.0443 10.49 23.4043 11 23.8963 11.372C24.3883 11.732 25.0303 11.912 25.8223 11.912C26.0863 11.912 26.3143 11.906 26.5063 11.894C26.7103 11.87 26.8963 11.846 27.0643 11.822C27.2323 11.786 27.3943 11.756 27.5503 11.732V9.05H25.1203V6.782ZM37.2337 3.974C38.5537 3.974 39.5617 4.262 40.2577 4.838C40.9657 5.402 41.3197 6.272 41.3197 7.448V14H39.4477L38.9257 12.668H38.8537C38.5777 13.016 38.2897 13.304 37.9897 13.532C37.7017 13.76 37.3657 13.922 36.9817 14.018C36.6097 14.126 36.1477 14.18 35.5957 14.18C35.0197 14.18 34.4977 14.072 34.0297 13.856C33.5737 13.628 33.2137 13.286 32.9497 12.83C32.6857 12.362 32.5537 11.774 32.5537 11.066C32.5537 10.022 32.9197 9.254 33.6517 8.762C34.3837 8.258 35.4817 7.982 36.9457 7.934L38.6557 7.88V7.448C38.6557 6.932 38.5177 6.554 38.2417 6.314C37.9777 6.074 37.6057 5.954 37.1257 5.954C36.6457 5.954 36.1777 6.026 35.7217 6.17C35.2657 6.302 34.8097 6.47 34.3537 6.674L33.4717 4.856C33.9997 4.58 34.5817 4.364 35.2177 4.208C35.8657 4.052 36.5377 3.974 37.2337 3.974ZM37.6117 9.482C36.7477 9.506 36.1477 9.662 35.8117 9.95C35.4757 10.238 35.3077 10.616 35.3077 11.084C35.3077 11.492 35.4277 11.786 35.6677 11.966C35.9077 12.134 36.2197 12.218 36.6037 12.218C37.1797 12.218 37.6657 12.05 38.0617 11.714C38.4577 11.366 38.6557 10.88 38.6557 10.256V9.446L37.6117 9.482ZM47.3289 14.18C46.2369 14.18 45.3429 13.754 44.6469 12.902C43.9629 12.038 43.6209 10.772 43.6209 9.104C43.6209 7.424 43.9689 6.152 44.6649 5.288C45.3609 4.424 46.2729 3.992 47.4009 3.992C47.8689 3.992 48.2829 4.058 48.6429 4.19C49.0029 4.31 49.3089 4.478 49.5609 4.694C49.8249 4.91 50.0469 5.156 50.2269 5.432H50.3169C50.2809 5.24 50.2389 4.964 50.1909 4.604C50.1429 4.232 50.1189 3.854 50.1189 3.47V0.319999H52.8009V14H50.7489L50.2269 12.722H50.1189C49.9509 12.986 49.7349 13.232 49.4709 13.46C49.2189 13.676 48.9189 13.85 48.5709 13.982C48.2229 14.114 47.8089 14.18 47.3289 14.18ZM48.2649 12.038C49.0089 12.038 49.5309 11.822 49.8309 11.39C50.1309 10.946 50.2869 10.286 50.2989 9.41V9.122C50.2989 8.162 50.1489 7.43 49.8489 6.926C49.5609 6.422 49.0209 6.17 48.2289 6.17C47.6409 6.17 47.1789 6.428 46.8429 6.944C46.5069 7.448 46.3389 8.18 46.3389 9.14C46.3389 10.1 46.5069 10.826 46.8429 11.318C47.1789 11.798 47.6529 12.038 48.2649 12.038ZM58.4376 4.172V14H55.7556V4.172H58.4376ZM57.1056 0.319999C57.5016 0.319999 57.8436 0.415999 58.1316 0.608C58.4196 0.788 58.5636 1.13 58.5636 1.634C58.5636 2.126 58.4196 2.468 58.1316 2.66C57.8436 2.852 57.5016 2.948 57.1056 2.948C56.6976 2.948 56.3496 2.852 56.0616 2.66C55.7856 2.468 55.6476 2.126 55.6476 1.634C55.6476 1.13 55.7856 0.788 56.0616 0.608C56.3496 0.415999 56.6976 0.319999 57.1056 0.319999ZM68.2479 11.084C68.2479 11.744 68.0919 12.308 67.7799 12.776C67.4679 13.232 66.9999 13.58 66.3759 13.82C65.7519 14.06 64.9779 14.18 64.0539 14.18C63.3699 14.18 62.7819 14.132 62.2899 14.036C61.7979 13.952 61.3059 13.808 60.8139 13.604V11.39C61.3419 11.63 61.9119 11.828 62.5239 11.984C63.1359 12.14 63.6759 12.218 64.1439 12.218C64.6719 12.218 65.0439 12.14 65.2599 11.984C65.4879 11.828 65.6019 11.624 65.6019 11.372C65.6019 11.204 65.5539 11.054 65.4579 10.922C65.3739 10.79 65.1819 10.64 64.8819 10.472C64.5819 10.304 64.1139 10.088 63.4779 9.824C62.8659 9.56 62.3619 9.302 61.9659 9.05C61.5699 8.786 61.2759 8.474 61.0839 8.114C60.8919 7.742 60.7959 7.28 60.7959 6.728C60.7959 5.816 61.1499 5.132 61.8579 4.676C62.5659 4.22 63.5079 3.992 64.6839 3.992C65.2959 3.992 65.8779 4.052 66.4299 4.172C66.9819 4.292 67.5519 4.49 68.1399 4.766L67.3299 6.692C67.0059 6.548 66.6939 6.422 66.3939 6.314C66.0939 6.206 65.7999 6.122 65.5119 6.062C65.2359 6.002 64.9479 5.972 64.6479 5.972C64.2519 5.972 63.9519 6.026 63.7479 6.134C63.5559 6.242 63.4599 6.404 63.4599 6.62C63.4599 6.776 63.5079 6.92 63.6039 7.052C63.7119 7.172 63.9099 7.304 64.1979 7.448C64.4979 7.592 64.9359 7.784 65.5119 8.024C66.0759 8.252 66.5619 8.492 66.9699 8.744C67.3779 8.984 67.6899 9.29 67.9059 9.662C68.1339 10.022 68.2479 10.496 68.2479 11.084Z" fill="#FF5C97"/>
</svg>
